<svg width="30" height="30" viewBox="0 0 30 30" fill="none" xmlns="http://www.w3.org/2000/svg">
<path d="M19.6044 0H10.3956C1.99213 0 0 1.99213 0 10.3956V19.6044C0 28.0079 1.99213 30 10.3956 30H19.6044C28.0079 30 30 28.0079 30 19.6044V10.3956C30 1.99213 27.9882 0 19.6044 0ZM24.2186 21.4006H22.0409C21.2159 21.4006 20.9618 20.7462 19.4778 19.2425C18.1888 17.9929 17.6179 17.8269 17.3001 17.8269C16.851 17.8269 16.7235 17.9535 16.7235 18.5694V20.5372C16.7235 21.065 16.5576 21.3818 15.1608 21.3818C12.8508 21.3818 10.2878 19.985 8.49067 17.3826C5.78044 13.569 5.03891 10.7125 5.03891 10.1219C5.03891 9.80407 5.16546 9.50689 5.77576 9.50689H7.95819C8.51036 9.50689 8.72035 9.76095 8.93503 10.3516C10.0141 13.4668 11.8112 16.1957 12.5527 16.1957C12.8265 16.1957 12.953 16.0692 12.953 15.3708V12.1534C12.8696 10.6694 12.0887 10.5419 12.0887 10.015C12.0887 9.76095 12.2987 9.50689 12.6352 9.50689H16.0673C16.5314 9.50689 16.702 9.76095 16.702 10.3075V14.648C16.702 15.1167 16.912 15.2826 17.0385 15.2826C17.3123 15.2826 17.5466 15.1167 18.0538 14.6086C19.6213 12.8508 20.7444 10.1406 20.7444 10.1406C20.8906 9.82282 21.1447 9.52564 21.6968 9.52564H23.8793C24.5336 9.52564 24.6799 9.86219 24.5336 10.3309C24.2599 11.6003 21.589 15.3698 21.589 15.3698C21.3593 15.7504 21.2712 15.9164 21.589 16.3411C21.8234 16.6589 22.5855 17.3179 23.0927 17.9085C24.0255 18.9678 24.7427 19.8566 24.9339 20.4715C25.1486 21.0818 24.8317 21.3996 24.2158 21.3996L24.2186 21.4006Z" fill="white"/>
</svg>
