<svg width="307" height="307" viewBox="0 0 307 307" fill="none" xmlns="http://www.w3.org/2000/svg">
<path d="M153.5 303C236.067 303 303 236.067 303 153.5C303 70.9334 236.067 4 153.5 4C70.9334 4 4 70.9334 4 153.5C4 236.067 70.9334 303 153.5 303Z" stroke="#7ABFFF" stroke-width="7"/>
<path d="M157.927 107.621L24.0815 230.668" stroke="#7ABFFF" stroke-width="5"/>
<path d="M279.75 231.192L155.119 107.37" stroke="#7ABFFF" stroke-width="5"/>
<path d="M146.309 181.016H110.607V225.643H146.309V181.016Z" fill="#7ABFFF"/>
<path d="M199.861 181.016H164.16V225.643H199.861V181.016Z" fill="#7ABFFF"/>
<path d="M146.309 234.568H110.607V279.195H146.309V234.568Z" fill="#7ABFFF"/>
<path d="M199.861 234.568H164.16V279.195H199.861V234.568Z" fill="#7ABFFF"/>
</svg>
