<svg width="100" height="100" viewBox="0 0 100 100" fill="none" xmlns="http://www.w3.org/2000/svg">
<path d="M63.77 36.8422C68.6 36.8422 72.52 40.9685 72.52 46.0527V63.158H72.5V68.4211H27.5V52.6316H27.51V46.0527C27.51 40.9685 31.425 36.8422 36.26 36.8422H63.77Z" fill="#0E5EA8"/>
<path d="M100 46.0527C100 43.6099 99.0781 41.2672 97.4372 39.5399C95.7962 37.8126 93.5706 36.8422 91.25 36.8422H74.375C76.34 39.3422 77.52 42.5527 77.52 46.0527V52.6316H77.5V68.4211H96.25C97.2446 68.4211 98.1984 68.0052 98.9017 67.2649C99.6049 66.5247 100 65.5206 100 64.4737V46.0527Z" fill="#0E5EA8"/>
<path d="M22.5 63.158H22.51V46.0527L22.555 44.8948C22.78 41.8422 23.905 39.0632 25.655 36.8422H8.75L8.03 36.8737C5.8415 37.0639 3.80094 38.1134 2.3134 39.8138C0.825855 41.5142 8.20229e-05 43.7412 0 46.0527V64.4737C0 66.6527 1.68 68.4211 3.75 68.4211H22.5V63.158Z" fill="#0E5EA8"/>
<path d="M50 0C53.9782 0 57.7935 1.66353 60.6066 4.62463C63.4196 7.58573 65 11.6018 65 15.7895C65 19.9771 63.4196 23.9932 60.6066 26.9543C57.7935 29.9154 53.9782 31.5789 50 31.5789C46.0217 31.5789 42.2064 29.9154 39.3934 26.9543C36.5803 23.9932 35 19.9771 35 15.7895C35 11.6018 36.5803 7.58573 39.3934 4.62463C42.2064 1.66353 46.0217 0 50 0Z" fill="#0E5EA8"/>
<path d="M82.4999 5.26318C85.8151 5.26318 88.9946 6.64946 91.3388 9.11704C93.683 11.5846 94.9999 14.9314 94.9999 18.4211C94.9999 21.9108 93.683 25.2575 91.3388 27.7251C88.9946 30.1927 85.8151 31.579 82.4999 31.579C79.1847 31.579 76.0053 30.1927 73.6611 27.7251C71.3169 25.2575 69.9999 21.9108 69.9999 18.4211C69.9999 14.9314 71.3169 11.5846 73.6611 9.11704C76.0053 6.64946 79.1847 5.26318 82.4999 5.26318Z" fill="#0E5EA8"/>
<path d="M17.5001 5.26318C20.8153 5.26318 23.9947 6.64946 26.3389 9.11704C28.6831 11.5846 30.0001 14.9314 30.0001 18.4211C30.0001 21.9108 28.6831 25.2575 26.3389 27.7251C23.9947 30.1927 20.8153 31.579 17.5001 31.579C14.1849 31.579 11.0054 30.1927 8.66123 27.7251C6.31702 25.2575 5.00006 21.9108 5.00006 18.4211C5.00006 14.9314 6.31702 11.5846 8.66123 9.11704C11.0054 6.64946 14.1849 5.26318 17.5001 5.26318Z" fill="#0E5EA8"/>
<path d="M0 77.6316C0 76.5847 0.395088 75.5806 1.09835 74.8404C1.80161 74.1001 2.75544 73.6842 3.75 73.6842H96.25C97.2446 73.6842 98.1984 74.1001 98.9017 74.8404C99.6049 75.5806 100 76.5847 100 77.6316V80.2632C100 85.4977 98.0246 90.5178 94.5083 94.2192C90.992 97.9206 86.2228 100 81.25 100H18.75C13.7772 100 9.00805 97.9206 5.49175 94.2192C1.97544 90.5178 0 85.4977 0 80.2632V77.6316Z" fill="#0E5EA8"/>
</svg>
