<svg width="100" height="100" viewBox="0 0 100 100" fill="none" xmlns="http://www.w3.org/2000/svg">
<path d="M53.125 85.2272H6.25C4.5924 85.2272 3.00268 84.4789 1.83058 83.147C0.65848 81.8151 0 80.0086 0 78.1249V7.10227C0 5.21863 0.65848 3.41214 1.83058 2.08021C3.00268 0.748272 4.5924 0 6.25 0H93.75C95.4076 0 96.9973 0.748272 98.1694 2.08021C99.3415 3.41214 100 5.21863 100 7.10227V43.9275C95.8368 37.9021 89.7809 33.9442 83.1042 32.8851C76.4274 31.826 69.6493 33.748 64.1932 38.2476C58.7371 42.7471 55.0275 49.4741 53.8436 57.0159C52.6596 64.5576 54.0934 72.3272 57.8438 78.6931L54.9375 82.7414L53.125 85.2272ZM15.625 21.3068V26.9886H68.75V21.3068H15.625ZM15.625 41.1932H50V35.5113H15.625V41.1932ZM15.625 66.0511H46.875V60.3693H15.625V66.0511Z" fill="#0E5EA8"/>
<path d="M99.4688 62.4645C99.4771 58.7202 98.6674 55.0321 97.1123 51.731C95.5572 48.4299 93.3053 45.6191 90.5586 43.5508C87.812 41.4825 84.6564 40.2213 81.3751 39.8803C78.0938 39.5394 74.7893 40.1294 71.7581 41.5974C68.7269 43.0654 66.0638 45.3655 64.0076 48.2914C61.9515 51.2173 60.5666 54.6774 59.9773 58.3613C59.388 62.0453 59.6126 65.8379 60.6311 69.3988C61.6495 72.9598 63.4299 76.1778 65.8125 78.7642L59.75 87.1804L62.5625 100L74 84.1619C77.6205 85.3784 81.4733 85.3784 85.0938 84.1619L96.5313 100L99.3438 87.1804L93.2813 78.7642C95.2309 76.6656 96.7847 74.1386 97.8484 71.3366C98.912 68.5346 99.4633 65.5161 99.4688 62.4645ZM65.9063 62.4645C65.8691 59.3865 66.6383 56.3655 68.1161 53.7856C69.5938 51.2058 71.7134 49.1836 74.2053 47.9763C76.6971 46.769 79.4486 46.4311 82.1099 47.0056C84.7712 47.5801 87.222 49.0411 89.1507 51.2026C91.0794 53.3642 92.3987 56.1287 92.941 59.1447C93.4833 62.1607 93.2241 65.2918 92.1962 68.1398C91.1683 70.9879 89.4183 73.4242 87.1687 75.139C84.919 76.8538 82.2714 77.7696 79.5625 77.7699C75.9734 77.7794 72.5266 76.1756 69.9741 73.3083C67.4216 70.441 65.9705 66.5429 65.9375 62.4645H65.9063Z" fill="#0E5EA8"/>
</svg>
