<svg width="100" height="100" viewBox="0 0 100 100" fill="none" xmlns="http://www.w3.org/2000/svg">
<path d="M13.3333 0C9.79711 0 6.40573 1.23949 3.90524 3.4458C1.40476 5.65211 0 8.64451 0 11.7647V82.3529C0 85.4731 1.40476 88.4655 3.90524 90.6718C6.40573 92.8782 9.79711 94.1176 13.3333 94.1176H41.7133C40.0154 92.3032 38.5467 90.3307 37.3333 88.2353H13.3333C11.5652 88.2353 9.86953 87.6155 8.61929 86.5124C7.36905 85.4092 6.66667 83.913 6.66667 82.3529H34.7133C32.9303 76.8115 32.8565 70.9505 34.4994 65.3754C36.1423 59.8003 39.4425 54.7134 44.0588 50.6401C48.6752 46.5669 54.4404 43.655 60.7588 42.2054C67.0772 40.7557 73.7197 40.8209 80 42.3941V11.7647C80 8.64451 78.5952 5.65211 76.0947 3.4458C73.5943 1.23949 70.2029 0 66.6667 0H13.3333ZM18.3333 14.7059H61.6667C62.9927 14.7059 64.2645 15.1707 65.2022 15.9981C66.1399 16.8254 66.6667 17.9476 66.6667 19.1176C66.6667 20.2877 66.1399 21.4099 65.2022 22.2372C64.2645 23.0646 62.9927 23.5294 61.6667 23.5294H18.3333C17.0072 23.5294 15.7355 23.0646 14.7978 22.2372C13.8601 21.4099 13.3333 20.2877 13.3333 19.1176C13.3333 17.9476 13.8601 16.8254 14.7978 15.9981C15.7355 15.1707 17.0072 14.7059 18.3333 14.7059Z" fill="#0E5EA8"/>
<path d="M100 73.5294C100 80.5499 96.8393 87.2828 91.2132 92.247C85.5871 97.2112 77.9565 100 70 100C62.0435 100 54.4129 97.2112 48.7868 92.247C43.1607 87.2828 40 80.5499 40 73.5294C40 66.509 43.1607 59.7761 48.7868 54.8119C54.4129 49.8477 62.0435 47.0588 70 47.0588C77.9565 47.0588 85.5871 49.8477 91.2132 54.8119C96.8393 59.7761 100 66.509 100 73.5294ZM66.8 61.9647C66.3677 61.7028 65.8654 61.5449 65.3428 61.5067C64.8201 61.4686 64.2952 61.5514 63.82 61.7471C63.4321 61.8977 63.0811 62.1135 62.7867 62.3824C62.1656 62.9439 61.8186 63.6978 61.82 64.4824V82.5706C61.8159 82.9605 61.8992 83.3473 62.0651 83.7087C62.231 84.0701 62.4762 84.399 62.7867 84.6765C63.091 84.9435 63.445 85.1623 63.8333 85.3235C64.5097 85.597 65.2772 85.6389 65.9867 85.4412C66.294 85.3519 66.5857 85.2252 66.8533 85.0647L82.16 75.8471C82.6257 75.5763 83.0009 75.2006 83.2467 74.7588C83.4999 74.3139 83.6302 73.8223 83.6267 73.3244C83.6232 72.8264 83.4861 72.3363 83.2267 71.8941C82.966 71.4588 82.5825 71.0901 82.1133 70.8235L66.8 61.9647Z" fill="#0E5EA8"/>
</svg>
